<svg width="50" height="50" viewBox="0 0 50 50" fill="none" xmlns="http://www.w3.org/2000/svg">
<path d="M9.23136 50C8.46559 50 8.06491 49.4048 8.06491 48.8168C8.06491 48.2316 8.47373 47.6098 9.23136 47.6098H29.3026V33.3674C28.6524 33.7304 28.096 33.9003 27.562 33.9003C27.3124 33.9003 27.0666 33.8616 26.8315 33.7852C25.4396 33.3333 24.9321 31.8308 24.4843 30.5052C24.279 29.8973 23.9689 28.9795 23.7027 28.7858C23.427 28.5851 22.4477 28.5723 21.7996 28.5638C21.7996 28.5638 21.6006 28.561 21.5129 28.5596V34.4054C21.5129 35.0633 20.9723 35.5984 20.3078 35.5984C20.1067 35.5984 19.9073 35.546 19.7312 35.4466L15.8464 33.2585L11.9615 35.4467C11.7852 35.546 11.5858 35.5985 11.3848 35.5985C10.7204 35.5985 10.1799 35.0633 10.1799 34.4054V22.06H2.39024V47.6097H5.26866C6.03443 47.6097 6.43511 48.2049 6.43511 48.7928C6.43511 49.378 6.02629 49.9999 5.26866 49.9999H2.15007C0.964495 49.9999 0 49.0354 0 47.8499V21.8197C0 20.6342 0.964495 19.6697 2.15007 19.6697H16.2848C15.3861 18.9465 14.6038 18.1081 14.6038 16.9501C14.6038 15.4657 15.9424 14.4704 17.0179 13.6706C17.4932 13.3172 18.2887 12.7256 18.3851 12.4284C18.4944 12.0919 18.2025 11.1476 18.0094 10.5227C17.6015 9.2025 17.1392 7.7066 17.9841 6.54572C18.8358 5.37544 20.4104 5.35481 21.7995 5.33657C22.4482 5.32801 23.4273 5.31506 23.7028 5.1146C23.969 4.92078 24.2791 4.00268 24.4843 3.39519C24.9322 2.06944 25.4399 0.566947 26.8315 0.1151C27.0666 0.038772 27.3124 4.5977e-05 27.562 4.5977e-05C28.6363 4.5977e-05 29.6166 0.69131 30.5647 1.3598C31.1078 1.74298 31.9285 2.32205 32.3015 2.32205C32.674 2.32205 33.4945 1.7434 34.0374 1.3605C34.9855 0.691543 35.9658 0 37.0404 0C37.2901 0 37.5359 0.038726 37.771 0.115148C39.1628 0.567089 39.6703 2.06949 40.1181 3.39505C40.3234 4.00278 40.6335 4.92083 40.8999 5.11469C40.917 5.12723 40.9699 5.1602 41.0915 5.19659C41.6687 5.36969 41.9978 5.88523 41.9106 6.4794C41.8205 7.09312 41.3339 7.53856 40.7537 7.53856C40.6384 7.53856 40.5212 7.52098 40.4053 7.48627C40.0515 7.38015 39.7531 7.23652 39.4931 7.04724C38.6121 6.40597 38.2264 5.26436 37.8535 4.1603C37.4807 3.05624 37.2073 2.46142 37.0406 2.39159C36.7162 2.3959 35.8704 2.99245 35.4153 3.31348C34.4399 4.00142 33.4318 4.71238 32.3013 4.71238C31.1706 4.71238 30.1626 4.00142 29.1877 3.3139C28.7308 2.99156 27.8804 2.39164 27.5624 2.39164L27.5623 2.39122C27.3964 2.45824 27.1229 3.0532 26.7491 4.16016C26.3761 5.2644 25.9905 6.40616 25.1093 7.04724C24.219 7.69529 23.0051 7.71123 21.8313 7.72662C20.6584 7.74205 20.0146 7.81801 19.9168 7.95233C19.8644 8.02431 19.8436 8.36223 20.2932 9.81655C20.6416 10.944 21.0019 12.1098 20.6586 13.1668C20.3267 14.189 19.3697 14.9006 18.4443 15.5887C18.0477 15.8837 16.9941 16.6673 16.9941 16.9503C16.9941 17.2333 18.0476 18.0168 18.4442 18.3118C19.3698 19.0001 20.3267 19.7117 20.6586 20.7339C21.0017 21.7906 20.6415 22.9561 20.2932 24.0833C19.8435 25.5382 19.8642 25.8762 19.9166 25.9482C20.0144 26.0826 20.6582 26.1584 21.8302 26.1738C23.005 26.1892 24.2188 26.2052 25.1093 26.8532C25.9903 27.4945 26.376 28.6361 26.7489 29.7403C27.1215 30.8432 27.3947 31.4379 27.5613 31.5087C27.8875 31.5037 28.7315 30.9084 29.1859 30.5879C30.1619 29.8995 31.1702 29.1883 32.3012 29.1883C33.4321 29.1883 34.44 29.8992 35.4147 30.5867C35.8723 30.9094 36.7224 31.5089 37.0396 31.5089C37.1986 31.458 37.4745 30.862 37.8532 29.7403C38.2262 28.636 38.612 27.4942 39.493 26.8533C40.3834 26.2053 41.5971 26.1893 42.7709 26.1739C43.9438 26.1585 44.5877 26.0827 44.6855 25.9482C44.7378 25.8763 44.7587 25.5384 44.3093 24.0848C43.9607 22.9565 43.6004 21.7907 43.9436 20.7337C44.2755 19.7117 45.2324 19.0001 46.1578 18.3118C46.5546 18.0167 47.608 17.2333 47.608 16.9502C47.608 16.6673 46.555 15.884 46.1585 15.5891C45.2328 14.9007 44.2754 14.1889 43.9436 13.1666C43.6005 12.1099 43.9607 10.9444 44.3091 9.8172C44.7485 8.39553 44.7387 8.04036 44.6891 7.95776C44.6721 7.94387 44.5793 7.87783 44.3032 7.82348C43.6923 7.7031 43.3082 7.18479 43.3689 6.56307C43.4399 5.83523 44.0043 5.45438 44.525 5.45438C44.6041 5.45438 44.6849 5.46243 44.7653 5.47833C45.6103 5.64479 46.2163 5.99393 46.6181 6.54581C47.4631 7.70721 47.0007 9.20288 46.5927 10.5224C46.3993 11.1483 46.1077 12.0921 46.217 12.4286C46.3134 12.7257 47.1087 13.3171 47.5839 13.6705C48.6598 14.4706 49.9983 15.466 49.9983 16.9503C49.9983 18.4347 48.7158 19.3883 47.5844 20.2298C47.1087 20.5835 46.3134 21.1749 46.217 21.472C46.1077 21.8084 46.3993 22.7523 46.5923 23.3768C47.0007 24.6978 47.4631 26.1935 46.6181 27.3547C45.7663 28.525 44.1918 28.5457 42.8026 28.5639C42.1544 28.5724 41.175 28.5852 40.8996 28.7858C40.633 28.9797 40.3229 29.8977 40.1177 30.5052C39.6699 31.8309 39.1624 33.3334 37.7706 33.7853C37.5355 33.8616 37.2897 33.9003 37.0401 33.9003C35.9658 33.9004 34.9858 33.2092 34.0381 32.5408C33.4949 32.1575 32.6738 31.5783 32.3011 31.5783C32.2268 31.5783 32.0509 31.6083 31.6927 31.8024V47.85C31.6927 49.0355 30.7282 50 29.5427 50H9.23136ZM12.5701 32.3605L15.2599 30.8455C15.4387 30.7448 15.6414 30.6917 15.8463 30.6917C16.0512 30.6917 16.254 30.7448 16.4327 30.8453L19.1226 32.3605V28.2179C18.6384 28.0242 18.2655 27.7413 17.9839 27.3546C17.139 26.1934 17.6013 24.6977 18.0091 23.3781C18.1358 22.9683 18.2909 22.4669 18.3636 22.06H12.5701V32.3605Z" fill="white"/>
<path d="M23.1794 20.4639C22.7699 20.4639 22.3555 20.1948 22.3555 19.6806V14.2192C22.3555 13.7715 22.7197 13.4072 23.1674 13.4072H25.381C25.9192 13.4072 26.1643 13.8219 26.1643 14.2073C26.1643 14.6167 25.8953 15.0312 25.381 15.0312H23.9794V16.0862H25.2051C25.4482 16.0862 25.6523 16.1735 25.7951 16.3386C25.9198 16.4828 25.9885 16.6773 25.9885 16.8862C25.9885 17.2956 25.7194 17.7101 25.2051 17.7101H23.9794V19.6806C23.9794 19.9237 23.8921 20.1277 23.727 20.2706C23.5828 20.3953 23.3883 20.4639 23.1795 20.4639H23.1794H23.1794Z" fill="white"/>
<path d="M34.0111 20.488C33.5635 20.488 33.1992 20.1237 33.1992 19.676V14.2246C33.1992 13.7768 33.5635 13.4126 34.0111 13.4126H36.3082C36.8465 13.4126 37.0916 13.8273 37.0916 14.2126C37.0916 14.6221 36.8225 15.0366 36.3082 15.0366H34.8232V16.1383H36.1388C36.6771 16.1383 36.9222 16.553 36.9222 16.9383C36.9222 17.3478 36.6531 17.7623 36.1388 17.7623H34.8232V18.864H36.3082C36.8465 18.864 37.0916 19.2787 37.0916 19.664C37.0916 20.0735 36.8225 20.488 36.3082 20.488H34.0111Z" fill="white"/>
<path d="M39.1362 20.488C38.6885 20.488 38.3242 20.1237 38.3242 19.676V14.2246C38.3242 13.7768 38.6885 13.4126 39.1362 13.4126H41.4333C41.9715 13.4126 42.2167 13.8273 42.2167 14.2126C42.2167 14.6221 41.9475 15.0366 41.4333 15.0366H39.9481V16.1383H41.2638C41.8021 16.1383 42.0473 16.553 42.0473 16.9383C42.0473 17.3478 41.7781 17.7623 41.2638 17.7623H39.9481V18.864H41.4333C41.9715 18.864 42.2167 19.2787 42.2167 19.664C42.2167 20.0735 41.9475 20.488 41.4333 20.488H39.1362Z" fill="white"/>
<path d="M31.14 20.5051C30.9248 20.5051 30.7296 20.4125 30.5754 20.2373L29.0224 18.4728V19.7009C29.0224 20.2391 28.6077 20.4842 28.2223 20.4842C27.8129 20.4842 27.3984 20.2151 27.3984 19.7009V14.1992C27.3984 13.7515 27.7627 13.3872 28.2105 13.3872H29.6742C30.9549 13.3872 31.9969 14.3929 31.9969 15.629C31.9969 16.5596 31.4094 17.3815 30.5203 17.7166L31.7946 19.1644C32.0046 19.4031 32.0525 19.7002 31.9261 19.9798C31.7863 20.2891 31.463 20.5051 31.1401 20.5051H31.14V20.5051ZM29.0273 15.3442C29.0279 15.6457 29.0285 15.9473 29.0298 16.2488C29.2754 16.2477 29.5205 16.2468 29.6741 16.2468C30.0528 16.2468 30.3728 15.9639 30.3728 15.629C30.3728 15.2941 30.0528 15.0112 29.6741 15.0112H29.0265L29.0273 15.3442V15.3442Z" fill="white"/>
<path d="M34.8561 41.8355C34.0903 41.8355 33.6896 41.2404 33.6896 40.6524C33.6896 40.0672 34.0985 39.4453 34.8561 39.4453H45.1693C45.9351 39.4453 46.3358 40.0405 46.3358 40.6285C46.3358 41.2137 45.9269 41.8355 45.1693 41.8355H34.8561Z" fill="white"/>
<path d="M34.8561 46.2281C34.0903 46.2281 33.6896 45.6329 33.6896 45.0449C33.6896 44.4597 34.0985 43.8379 34.8561 43.8379H41.3496C42.1154 43.8379 42.5161 44.4331 42.5161 45.0211C42.5161 45.6063 42.1073 46.2281 41.3496 46.2281H34.8561Z" fill="white"/>
<path d="M5.26934 45.855C4.61035 45.855 4.07422 45.3189 4.07422 44.6599V39.6467C4.07422 38.9877 4.61035 38.4517 5.26934 38.4517H15.7251C16.3841 38.4517 16.9203 38.9877 16.9203 39.6467V44.6599C16.9203 45.3189 16.3842 45.855 15.7252 45.855H5.26934ZM14.53 43.4648L14.5301 40.8419H6.46441V43.4648H14.53Z" fill="white"/>
</svg>
